<?xml version="1.0" encoding="UTF-8" standalone="no"?>
<!-- Created with Inkscape (http://www.inkscape.org/) -->
<svg
   xmlns:svg="http://www.w3.org/2000/svg"
   xmlns="http://www.w3.org/2000/svg"
   version="1.0"
   width="240"
   height="64"
   id="svg6218">
  <defs
     id="defs6220" />
  <path
     d="M 162.14511,46.368868 C 162.14511,53.233595 156.58015,58.798558 149.71542,58.798558 C 142.85069,58.798558 137.28573,53.233595 137.28573,46.368868 C 137.28573,39.50414 142.85069,33.939178 149.71542,33.939178 C 156.58015,33.939178 162.14511,39.50414 162.14511,46.368868 L 162.14511,46.368868 z "
     style="color:black;fill:white;fill-opacity:1;fill-rule:nonzero;stroke:#676767;stroke-width:0.50581741;stroke-linecap:round;stroke-linejoin:miter;marker:none;marker-start:none;marker-mid:none;marker-end:none;stroke-miterlimit:4;stroke-dasharray:none;stroke-dashoffset:0;stroke-opacity:1;visibility:visible;display:inline;overflow:visible"
     id="path13412" />
  <path
     d="M 144.90022,50.737497 L 141.81752,42.361481 L 143.70596,42.361481 L 145.88857,48.560647 L 148.00058,42.361481 L 149.84785,42.361481 L 146.75926,50.737497 L 144.90022,50.737497 z M 150.73619,42.361481 L 152.47756,42.361481 L 152.47756,46.898013 C 152.47756,47.61792 152.49913,48.084523 152.54228,48.297825 C 152.61679,48.640639 152.79426,48.915839 153.07469,49.123428 C 153.35511,49.331021 153.73849,49.434816 154.22483,49.434815 C 154.71899,49.434816 155.09158,49.336734 155.3426,49.140569 C 155.5936,48.944406 155.7446,48.703487 155.79559,48.417809 C 155.84657,48.132136 155.87206,47.657914 155.87207,46.995143 L 155.87207,42.361481 L 157.61344,42.361481 L 157.61344,46.760889 C 157.61344,47.76647 157.56638,48.47685 157.47225,48.892031 C 157.37812,49.307215 157.20457,49.657643 156.95161,49.943318 C 156.69863,50.228994 156.36036,50.456583 155.93678,50.626084 C 155.5132,50.795584 154.9602,50.880334 154.27777,50.880334 C 153.45414,50.880334 152.82956,50.787967 152.40402,50.603229 C 151.97849,50.418492 151.64218,50.178525 151.39509,49.883326 C 151.14799,49.588129 150.98523,49.278646 150.90679,48.954879 C 150.79305,48.474947 150.73619,47.76647 150.73619,46.829451 L 150.73619,42.361481 z "
     style="font-size:11.87359333px;font-style:normal;font-variant:normal;font-weight:bold;font-stretch:normal;text-align:center;line-height:125%;writing-mode:lr-tb;text-anchor:middle;fill:#333;fill-opacity:1;stroke:none;stroke-width:1px;stroke-linecap:butt;stroke-linejoin:miter;stroke-opacity:1;display:inline;font-family:FreeSans"
     id="text13426" />
  <path
     d="M 130.44461,46.368868 C 130.44461,53.233595 124.87965,58.798558 118.01492,58.798558 C 111.15019,58.798558 105.58523,53.233595 105.58523,46.368868 C 105.58523,39.50414 111.15019,33.939178 118.01492,33.939178 C 124.87965,33.939178 130.44461,39.50414 130.44461,46.368868 L 130.44461,46.368868 z "
     style="color:black;fill:white;fill-opacity:1;fill-rule:nonzero;stroke:#676767;stroke-width:0.50590676;stroke-linecap:round;stroke-linejoin:miter;marker:none;marker-start:none;marker-mid:none;marker-end:none;stroke-miterlimit:4;stroke-dasharray:none;stroke-dashoffset:0;stroke-opacity:1;visibility:visible;display:inline;overflow:visible"
     id="path13410" />
  <path
     d="M 110.56117,50.737497 L 110.56117,42.361482 L 116.95602,42.361482 L 116.95602,43.778434 L 112.30255,43.778434 L 112.30255,45.635327 L 116.63245,45.635327 L 116.63245,47.046565 L 112.30255,47.046565 L 112.30255,49.326258 L 117.12074,49.326258 L 117.12074,50.737497 L 110.56117,50.737497 z M 118.6268,50.737497 L 118.6268,42.361482 L 120.32112,42.361482 L 123.85093,47.955014 L 123.85093,42.361482 L 125.46876,42.361482 L 125.46876,50.737497 L 123.7215,50.737497 L 120.24464,45.275375 L 120.24464,50.737497 L 118.6268,50.737497 z "
     style="font-size:11.87359142px;font-style:normal;font-variant:normal;font-weight:bold;font-stretch:normal;text-align:center;line-height:125%;writing-mode:lr-tb;text-anchor:middle;fill:#333;fill-opacity:1;stroke:none;stroke-width:1px;stroke-linecap:butt;stroke-linejoin:miter;stroke-opacity:1;display:inline;font-family:FreeSans"
     id="text13430" />
  <path
     d="M 98.74408,46.368868 C 98.74408,53.233595 93.179118,58.798558 86.31439,58.798558 C 79.449662,58.798558 73.8847,53.233595 73.8847,46.368868 C 73.8847,39.50414 79.449662,33.939178 86.31439,33.939178 C 93.179118,33.939178 98.74408,39.50414 98.74408,46.368868 L 98.74408,46.368868 z "
     style="color:black;fill:white;fill-opacity:1;fill-rule:nonzero;stroke:#676767;stroke-width:0.50581741;stroke-linecap:round;stroke-linejoin:miter;marker:none;marker-start:none;marker-mid:none;marker-end:none;stroke-miterlimit:4;stroke-dasharray:none;stroke-dashoffset:0;stroke-opacity:1;visibility:visible;display:inline;overflow:visible"
     id="path13408" />
  <path
     d="M 83.75237,47.657914 L 85.440798,48.177844 C 85.181937,49.092007 84.751496,49.770962 84.149474,50.21471 C 83.547438,50.65846 82.783626,50.880334 81.858036,50.880334 C 80.712804,50.880334 79.771521,50.500386 79.034184,49.740489 C 78.296845,48.980594 77.928175,47.941687 77.928175,46.623767 C 77.928175,45.229676 78.298805,44.146966 79.040068,43.375635 C 79.781326,42.60432 80.755946,42.218658 81.96393,42.218649 C 83.018947,42.218658 83.875907,42.521474 84.534812,43.127097 C 84.927007,43.485152 85.221157,43.999368 85.417265,44.669746 L 83.69354,45.069692 C 83.591561,44.635471 83.378791,44.292661 83.055232,44.04126 C 82.73166,43.789873 82.338478,43.664175 81.875685,43.664168 C 81.236392,43.664175 80.717706,43.887002 80.319625,44.332649 C 79.921538,44.778309 79.722496,45.500115 79.722498,46.49807 C 79.722496,47.556978 79.918596,48.31116 80.310801,48.760622 C 80.702998,49.210086 81.212861,49.434818 81.840387,49.434816 C 82.30318,49.434818 82.701264,49.291979 83.034641,49.006303 C 83.368006,48.720629 83.607249,48.271166 83.75237,47.657914 L 83.75237,47.657914 z M 86.946852,50.737497 L 86.946852,42.361487 L 90.611976,42.361487 C 91.533645,42.361495 92.203329,42.436724 92.621029,42.587171 C 93.038717,42.737634 93.373069,43.005217 93.624085,43.389919 C 93.875087,43.774636 94.000591,44.214576 94.000599,44.709741 C 94.000591,45.338233 93.810374,45.85721 93.429946,46.266673 C 93.049503,46.676145 92.480811,46.934206 91.723869,47.040855 C 92.100376,47.254162 92.411195,47.488416 92.656328,47.743616 C 92.901447,47.998823 93.231876,48.452094 93.647618,49.103433 L 94.700679,50.737497 L 92.618088,50.737497 L 91.35912,48.914886 C 90.912006,48.263548 90.606089,47.853128 90.441369,47.683624 C 90.27664,47.514126 90.10211,47.397952 89.91778,47.3351 C 89.733441,47.272255 89.441252,47.240831 89.041209,47.240827 L 88.688227,47.240827 L 88.688227,50.737497 L 86.946852,50.737497 z M 88.688227,45.903865 L 89.97661,45.903865 C 90.811994,45.903869 91.333622,45.869589 91.541495,45.801022 C 91.749355,45.732464 91.91212,45.614385 92.029785,45.446784 C 92.14744,45.279193 92.20627,45.069698 92.206276,44.818297 C 92.20627,44.536437 92.12881,44.308849 91.973897,44.135532 C 91.818972,43.962229 91.60032,43.852721 91.31794,43.807006 C 91.176741,43.787968 90.753164,43.778445 90.047206,43.778438 L 88.688227,43.778438 L 88.688227,45.903865 z "
     style="font-size:11.87358379px;font-style:normal;font-variant:normal;font-weight:bold;font-stretch:normal;text-align:center;line-height:125%;writing-mode:lr-tb;text-anchor:middle;fill:#333;fill-opacity:1;stroke:none;stroke-width:1px;stroke-linecap:butt;stroke-linejoin:miter;stroke-opacity:1;display:inline;font-family:FreeSans"
     id="text13442" />
  <path
     d="M 35.34305,46.368868 C 35.34305,53.233595 29.778088,58.798558 22.91336,58.798558 C 16.048632,58.798558 10.48367,53.233595 10.48367,46.368868 C 10.48367,39.50414 16.048632,33.939178 22.91336,33.939178 C 29.778088,33.939178 35.34305,39.50414 35.34305,46.368868 L 35.34305,46.368868 z "
     style="color:black;fill:white;fill-opacity:1;fill-rule:nonzero;stroke:#676767;stroke-width:0.50581741;stroke-linecap:round;stroke-linejoin:miter;marker:none;marker-start:none;marker-mid:none;marker-end:none;stroke-miterlimit:4;stroke-dasharray:none;stroke-dashoffset:0;stroke-opacity:1;visibility:visible;display:inline;overflow:visible"
     id="path13404" />
  <path
     d="M 15.318381,50.737489 L 15.318381,42.361477 L 21.713231,42.361477 L 21.713231,43.778428 L 17.059757,43.778428 L 17.059757,45.63532 L 21.389664,45.63532 L 21.389664,47.046559 L 17.059757,47.046559 L 17.059757,49.326251 L 21.877955,49.326251 L 21.877955,50.737489 L 15.318381,50.737489 z M 22.48979,50.737489 L 25.437187,46.366651 L 22.766293,42.361477 L 24.80182,42.361477 L 26.53143,45.052542 L 28.225742,42.361477 L 30.24362,42.361477 L 27.56096,46.429499 L 30.508356,50.737489 L 28.408116,50.737489 L 26.496132,47.840738 L 24.578265,50.737489 L 22.48979,50.737489 z "
     style="font-size:11.87358856px;font-style:normal;font-variant:normal;font-weight:bold;font-stretch:normal;text-align:center;line-height:125%;writing-mode:lr-tb;text-anchor:middle;fill:#333;fill-opacity:1;stroke:none;stroke-width:1px;stroke-linecap:butt;stroke-linejoin:miter;stroke-opacity:1;display:inline;font-family:FreeSans"
     id="text13434" />
  <text
     x="22.188879"
     y="20.811579"
     transform="scale(1.014726,0.985488)"
     style="font-size:10.84812069px;font-style:normal;font-variant:normal;font-weight:normal;font-stretch:normal;text-align:end;line-height:125%;writing-mode:lr-tb;text-anchor:end;fill:#333;fill-opacity:1;stroke:none;stroke-width:1px;stroke-linecap:butt;stroke-linejoin:miter;stroke-opacity:1;display:inline;font-family:Bitstream Vera Sans"
     id="text8575"
     xml:space="preserve"><tspan
       x="22.188879"
       y="20.811579"
       style="text-align:center;text-anchor:middle;fill:#333"
       id="tspan8579">Éteint</tspan></text>
  <path
     d="M 85.175064,29.578138 C 81.884497,29.578144 79.297113,29.80667 77.412905,30.263719 C 75.528827,30.720776 74.201958,31.490813 73.432298,32.573829 C 73.432383,31.083439 73.956502,29.938322 75.004621,29.138473 C 76.052924,28.338635 77.691608,27.784706 79.920676,27.476685 C 82.149866,27.168678 85.14857,27.014671 88.916795,27.014663 L 106.19257,27.014663 C 108.50137,27.014671 110.33243,26.950088 111.68577,26.820913 C 113.03921,26.691752 114.25994,26.388705 115.34792,25.911773 C 116.7279,25.15665 117.48422,24.485973 117.61686,23.899742 C 118.28033,24.883411 119.52758,25.658414 121.35862,26.224756 C 123.11012,26.751368 125.72403,27.014671 129.20039,27.014663 L 148.74509,27.014663 C 154.34445,27.014671 158.04639,27.48166 159.85093,28.415632 C 161.68199,29.309874 162.59752,30.695936 162.59754,32.573829 C 161.61565,31.441132 160.24234,30.658678 158.47763,30.22646 C 156.7129,29.794251 154.18522,29.578144 150.8946,29.578138 L 130.99165,29.578138 C 127.06416,29.578144 124.05882,29.347133 121.97562,28.885107 C 119.89246,28.423091 118.43957,27.536307 117.61686,26.224756 C 116.84731,27.576052 115.35459,28.47277 113.13871,28.914914 C 110.92288,29.357069 107.69195,29.578144 103.44596,29.578138 L 85.175064,29.578138 z "
     style="font-size:110.84521484px;font-style:normal;font-weight:normal;fill:#333;fill-opacity:1;stroke:none;stroke-width:1px;stroke-linecap:butt;stroke-linejoin:miter;stroke-opacity:1;display:inline;font-family:Bitstream Vera Sans"
     id="JasmineUPC_bracket" />
  <text
     x="116.56985"
     y="20.811567"
     transform="scale(1.014726,0.985488)"
     style="font-size:10.84813213px;font-style:normal;font-variant:normal;font-weight:normal;font-stretch:normal;text-align:end;line-height:125%;writing-mode:lr-tb;text-anchor:end;fill:#333;fill-opacity:1;stroke:none;stroke-width:1px;stroke-linecap:butt;stroke-linejoin:miter;stroke-opacity:1;display:inline;font-family:Bitstream Vera Sans"
     id="text2194"
     xml:space="preserve"><tspan
       x="116.56985"
       y="20.811567"
       style="text-align:center;text-anchor:middle;fill:#333"
       id="tspan2202">Menacé</tspan></text>
  <path
     d="M 213.11649,23.571508 L 213.11649,30.749597"
     style="fill:#333;fill-rule:evenodd;stroke:#333;stroke-width:1px;stroke-linecap:butt;stroke-linejoin:miter;stroke-opacity:1;display:inline"
     id="path1914" />
  <path
     d="M 22.91336,23.571508 L 22.91336,30.749596"
     style="fill:#333;fill-rule:evenodd;stroke:#333;stroke-width:1px;stroke-linecap:butt;stroke-linejoin:miter;stroke-opacity:1;display:inline"
     id="path1917" />
  <path
     d="M 193.84561,46.368918 C 193.84561,53.233645 188.28065,58.798608 181.41592,58.798608 C 174.55119,58.798608 168.98623,53.233645 168.98623,46.368918 C 168.98623,39.50419 174.55119,33.939228 181.41592,33.939228 C 188.28065,33.939228 193.84561,39.50419 193.84561,46.368918 L 193.84561,46.368918 z "
     style="color:black;fill:white;fill-opacity:1;fill-rule:nonzero;stroke:#676767;stroke-width:0.50581741;stroke-linecap:round;stroke-linejoin:miter;marker:none;marker-start:none;marker-mid:none;marker-end:none;stroke-miterlimit:4;stroke-dasharray:none;stroke-dashoffset:0;stroke-opacity:1;visibility:visible;display:inline;overflow:visible"
     id="path13414" />
  <path
     d="M 174.29163,50.737489 L 174.29163,42.361468 L 175.98594,42.361468 L 179.51577,47.955005 L 179.51577,42.361468 L 181.13359,42.361468 L 181.13359,50.737489 L 179.38634,50.737489 L 175.90946,45.275364 L 175.90946,50.737489 L 174.29163,50.737489 z M 184.92227,50.737489 L 184.92227,43.778421 L 182.36315,43.778421 L 182.36315,42.361468 L 189.21688,42.361468 L 189.21688,43.778421 L 186.66365,43.778421 L 186.66365,50.737489 L 184.92227,50.737489 z "
     style="font-size:11.87360096px;font-style:normal;font-variant:normal;font-weight:bold;font-stretch:normal;text-align:center;line-height:125%;writing-mode:lr-tb;text-anchor:middle;fill:#333;fill-opacity:1;stroke:none;stroke-width:1px;stroke-linecap:butt;stroke-linejoin:miter;stroke-opacity:1;display:inline;font-family:FreeSans"
     id="text1899" />
  <path
     d="M 225.54611,46.368878 C 225.54611,53.233605 219.98115,58.798568 213.11642,58.798568 C 206.25169,58.798568 200.68673,53.233605 200.68673,46.368878 C 200.68673,39.50415 206.25169,33.939188 213.11642,33.939188 C 219.98115,33.939188 225.54611,39.50415 225.54611,46.368878 L 225.54611,46.368878 z "
     style="color:black;fill:white;fill-opacity:1;fill-rule:nonzero;stroke:#676767;stroke-width:0.50581741;stroke-linecap:round;stroke-linejoin:miter;marker:none;marker-start:none;marker-mid:none;marker-end:none;stroke-miterlimit:4;stroke-dasharray:none;stroke-dashoffset:0;stroke-opacity:1;visibility:visible;display:inline;overflow:visible"
     id="path2072" />
  <path
     d="M 205.85389,50.737501 L 205.85389,42.430037 L 207.59527,42.430037 L 207.59527,49.32626 L 211.92519,49.32626 L 211.92519,50.737501 L 205.85389,50.737501 z M 218.69068,47.657911 L 220.37912,48.177842 C 220.12025,49.092008 219.68981,49.770964 219.08779,50.214713 C 218.48575,50.658464 217.72193,50.880338 216.79634,50.880338 C 215.65111,50.880338 214.70982,50.500389 213.97248,49.74049 C 213.23514,48.980594 212.86647,47.941686 212.86647,46.623763 C 212.86647,45.229669 213.23711,44.146957 213.97837,43.375626 C 214.71962,42.604308 215.69425,42.218645 216.90224,42.218637 C 217.95726,42.218645 218.81422,42.521462 219.47313,43.127086 C 219.86532,43.485142 220.15947,43.999359 220.35557,44.669738 L 218.63185,45.069685 C 218.52987,44.635464 218.3171,44.292652 217.99354,44.041251 C 217.66997,43.789863 217.27678,43.664166 216.81399,43.664158 C 216.1747,43.664166 215.65601,43.886992 215.25793,44.332641 C 214.85984,44.778301 214.6608,45.500109 214.6608,46.498065 C 214.6608,47.556975 214.8569,48.31116 215.24911,48.760622 C 215.6413,49.210087 216.15117,49.434819 216.7787,49.434817 C 217.24149,49.434819 217.63957,49.29198 217.97295,49.006303 C 218.30631,48.720629 218.54556,48.271165 218.69068,47.657911 L 218.69068,47.657911 z "
     style="font-size:11.87360668px;font-style:normal;font-variant:normal;font-weight:bold;font-stretch:normal;text-align:center;line-height:125%;writing-mode:lr-tb;text-anchor:middle;fill:#333;fill-opacity:1;stroke:none;stroke-width:1px;stroke-linecap:butt;stroke-linejoin:miter;stroke-opacity:1;display:inline;font-family:FreeSans"
     id="text3021" />
  <g
     transform="translate(4.947188,6.273199)"
     id="g3041">
    <text
       x="204.6432"
       y="6.4210806"
       transform="scale(1.014726,0.985488)"
       style="font-size:10.84812069px;font-style:normal;font-variant:normal;font-weight:normal;font-stretch:normal;text-align:end;line-height:125%;writing-mode:lr-tb;text-anchor:end;fill:#333;fill-opacity:1;stroke:none;stroke-width:1px;stroke-linecap:butt;stroke-linejoin:miter;stroke-opacity:1;display:inline;font-family:Bitstream Vera Sans"
       id="text2145"
       xml:space="preserve"><tspan
         x="204.6432"
         y="6.4210806"
         style="text-align:center;text-anchor:middle;fill:#333"
         id="tspan3029">Préoccup.</tspan></text>
    <text
       x="205.1093"
       y="14.440681"
       transform="scale(1.014726,0.985488)"
       style="font-size:10.84811878px;font-style:normal;font-variant:normal;font-weight:normal;font-stretch:normal;text-align:end;line-height:125%;writing-mode:lr-tb;text-anchor:end;fill:#333;fill-opacity:1;stroke:none;stroke-width:1px;stroke-linecap:butt;stroke-linejoin:miter;stroke-opacity:1;display:inline;font-family:Bitstream Vera Sans"
       id="text3037"
       xml:space="preserve"><tspan
         x="205.1093"
         y="14.440681"
         style="text-align:center;text-anchor:middle;fill:#333"
         id="tspan3039">min.</tspan></text>
  </g>
  <path
     d="M 67.04356,46.368868 C 67.04356,53.233595 61.478598,58.798558 54.61387,58.798558 C 47.749142,58.798558 42.18418,53.233595 42.18418,46.368868 C 42.18418,39.50414 47.749142,33.939178 54.61387,33.939178 C 61.478598,33.939178 67.04356,39.50414 67.04356,46.368868 L 67.04356,46.368868 z "
     style="color:black;fill:black;fill-opacity:1;fill-rule:nonzero;stroke:#676767;stroke-width:0.50581741;stroke-linecap:round;stroke-linejoin:miter;marker:none;marker-start:none;marker-mid:none;marker-end:none;stroke-miterlimit:4;stroke-dasharray:none;stroke-dashoffset:0;stroke-opacity:1;visibility:visible;display:inline;overflow:visible"
     id="path13406" />
  <path
     d="M 45.348127,50.737489 L 45.348127,42.36148 L 51.742975,42.36148 L 51.742975,43.778431 L 47.089503,43.778431 L 47.089503,45.635322 L 51.419408,45.635322 L 51.419408,47.04656 L 47.089503,47.04656 L 47.089503,49.326251 L 51.9077,49.326251 L 51.9077,50.737489 L 45.348127,50.737489 z M 54.619774,50.737489 L 52.560715,42.36148 L 54.343271,42.36148 L 55.64342,48.114987 L 57.22007,42.36148 L 59.290895,42.36148 L 60.802832,48.212117 L 62.126513,42.36148 L 63.879654,42.36148 L 61.785297,50.737489 L 59.938028,50.737489 L 58.220184,44.475479 L 56.508225,50.737489 L 54.619774,50.737489 z "
     style="font-size:11.87358379px;font-style:normal;font-variant:normal;font-weight:bold;font-stretch:normal;text-align:center;line-height:125%;writing-mode:lr-tb;text-anchor:middle;fill:white;fill-opacity:1;stroke:none;stroke-width:1px;stroke-linecap:butt;stroke-linejoin:miter;stroke-opacity:1;display:inline;font-family:FreeSans"
     id="text13438" />
</svg>
